<svg width="24" height="24" viewBox="0 0 24 24" fill="none" xmlns="http://www.w3.org/2000/svg">
<path d="M2.75 12C2.75 6.90421 6.90421 2.75 12 2.75C17.0958 2.75 21.25 6.90421 21.25 12C21.25 17.0958 17.0958 21.25 12 21.25C6.90421 21.25 2.75 17.0958 2.75 12ZM15.8903 15.8903C16.4732 15.3074 16.4732 14.3526 15.8903 13.7697L14.1207 12L15.8903 10.2303C16.4732 9.64744 16.4732 8.69256 15.8903 8.10967C15.3074 7.52678 14.3526 7.52678 13.7697 8.10967L12 9.87934L10.2303 8.10967C9.64744 7.52678 8.69256 7.52678 8.10967 8.10967C7.52678 8.69256 7.52678 9.64744 8.10967 10.2303L9.87934 12L8.10967 13.7697C7.52678 14.3526 7.52678 15.3074 8.10967 15.8903C8.40773 16.1884 8.79182 16.33 9.17 16.33C9.54818 16.33 9.93227 16.1884 10.2303 15.8903L12 14.1207L13.7697 15.8903C14.0677 16.1884 14.4518 16.33 14.83 16.33C15.2082 16.33 15.5923 16.1884 15.8903 15.8903Z" fill="#E42721" stroke="#E42721" stroke-width="1.5"/>
</svg>
